<?xml version="1.0" encoding="UTF-8"?>
<svg version="1.1" xmlns="http://www.w3.org/2000/svg" width="2311" height="922">
<path d="M0 0 C3.54818207 1.41927283 5.71666316 2.3173399 8.64453125 4.43359375 C9.64637451 5.15047363 9.64637451 5.15047363 10.66845703 5.88183594 C11.37599121 6.39520508 12.08352539 6.90857422 12.8125 7.4375 C14.34704945 8.53600441 15.88221918 9.63364278 17.41796875 10.73046875 C18.57498291 11.55877197 18.57498291 11.55877197 19.75537109 12.40380859 C23.01897862 14.72461194 26.31876587 16.9905256 29.625 19.25 C36.5811859 24.01481733 43.51312933 28.81407047 50.4375 33.625 C51.46375488 34.33688477 52.49000977 35.04876953 53.54736328 35.78222656 C54.97604736 36.77561035 54.97604736 36.77561035 56.43359375 37.7890625 C57.29009521 38.38412598 58.14659668 38.97918945 59.02905273 39.59228516 C61 41 61 41 62 42 C62 66.09 62 90.18 62 115 C272.54 115 483.08 115 700 115 C700 128.86 700 142.72 700 157 C624.76 157 549.52 157 472 157 C472 174.82 472 192.64 472 211 C478.5459436 210.34540564 484.71281389 209.58987029 491.1015625 208.2578125 C492.81314132 207.91100839 494.52481484 207.56467145 496.23657227 207.21875 C497.11644806 207.03957031 497.99632385 206.86039063 498.90286255 206.67578125 C543.14437798 197.72421374 598.1115773 189.74591453 638.4375 215.9375 C640.30854756 217.26824506 642.16448927 218.6206517 644 220 C645.09054687 220.79664063 645.09054687 220.79664063 646.203125 221.609375 C665.38267127 236.86239999 670.68018283 263.88013071 673.32546997 286.91616821 C675.93648821 310.10693129 676.27587331 333.06287563 676.20278788 356.36804628 C676.19008537 361.11916789 676.18909494 365.87029347 676.18673706 370.62142944 C676.18057857 379.57374413 676.164246 388.5260086 676.14403808 397.47830141 C676.12150121 407.68910201 676.11064143 417.89990531 676.10064721 428.11072469 C676.07987315 449.07384423 676.04480968 470.03691892 676 491 C674.58863215 490.53579048 673.17781037 490.06992056 671.76721191 489.6033783 C670.98150063 489.34413039 670.19578934 489.08488249 669.38626862 488.81777859 C665.64941547 487.53715223 661.99970363 486.05972508 658.34375 484.56640625 C657.55657593 484.24719711 656.76940186 483.92798798 655.95837402 483.59910583 C654.30748413 482.92897148 652.65713924 482.25749304 651.00732422 481.5847168 C648.50750718 480.56556062 646.00586352 479.55099847 643.50390625 478.53710938 C641.88791099 477.88047861 640.272022 477.22358622 638.65625 476.56640625 C637.92160522 476.26835587 637.18696045 475.97030548 636.43005371 475.66322327 C634.28210275 474.78618791 632.14090603 473.89407723 630 473 C629.17870102 472.66766861 628.35740204 472.33533722 627.51121521 471.99293518 C626.69919144 471.65318161 625.88716766 471.31342804 625.05053711 470.96337891 C624.31032822 470.65888824 623.57011932 470.35439758 622.80747986 470.04067993 C621 469 621 469 619.53515625 466.01953125 C619.30119141 464.43205078 619.30119141 464.43205078 619.0625 462.8125 C618.74518068 460.86862533 618.39972817 458.92861548 618 457 C617.34 456.67 616.68 456.34 616 456 C613.87481381 456.8861194 613.87481381 456.8861194 611.51953125 458.28125 C610.61066162 458.79018799 609.70179199 459.29912598 608.76538086 459.82348633 C607.79093018 460.37673584 606.81647949 460.92998535 605.8125 461.5 C572.98990383 479.70659343 539.67824411 488.47996151 502.125 488.3125 C501.29338348 488.31100952 500.46176697 488.30951904 499.60494995 488.3079834 C487.49159847 488.26899021 475.83222009 487.80395818 464 485 C462.72769531 484.7215625 461.45539063 484.443125 460.14453125 484.15625 C438.6082532 478.97861631 420.27909811 468.85773075 404 454 C403.25105469 453.33355469 402.50210937 452.66710937 401.73046875 451.98046875 C388.8837092 439.94455004 379.54365371 422.93889281 378.71484375 405.21484375 C378.05587178 380.61399956 387.60338898 362.17263593 404.20703125 344.5546875 C410.69988369 337.83367646 417.56084994 331.66598279 425 326 C426.04414062 325.20078125 427.08828125 324.4015625 428.1640625 323.578125 C467.22116613 294.35652777 518.84312888 282.70392779 567.02783203 289.015625 C585.81635648 291.81068809 604.68311923 297.3538577 620 309 C620.22551463 305.07219054 620.38713802 301.14696859 620.49438477 297.21411133 C620.56096439 295.23318848 620.67543688 293.2540593 620.79101562 291.27539062 C620.99282946 282.41800571 619.44704141 277.78785517 613.37011719 271.28735352 C612.58797852 270.53252686 611.80583984 269.7777002 611 269 C610.23743896 268.23872803 609.47487793 267.47745605 608.68920898 266.69311523 C596.80088267 255.15278237 581.42882081 249.54135083 565 249 C563.85273438 248.96003906 562.70546875 248.92007813 561.5234375 248.87890625 C517.24107268 247.90408496 476.23064269 259.2457615 435.61694336 275.73681641 C415.23991641 284 415.23991641 284 412 284 C410.09205838 258.64438986 410.09205838 258.64438986 414.37890625 252.98046875 C417.27537669 250.08836411 420.7536631 247 425 247 C425.33 217.3 425.66 187.6 426 157 C305.88 157 185.76 157 62 157 C62.185625 224.9696875 62.185625 224.9696875 62.375 294.3125 C62.42599854 315.77599487 62.42599854 315.77599487 62.47802734 337.6730957 C62.51793497 350.49691437 62.51793497 350.49691437 62.56045532 363.32072449 C62.57932753 369.03357316 62.59284186 374.7464036 62.60269165 380.45927429 C62.61407741 387.05223891 62.63232065 393.64514261 62.65892879 400.238064 C62.67231867 403.6086085 62.68159683 406.97902296 62.68425441 410.34960234 C62.68758321 413.96622402 62.70307111 417.58260133 62.7215271 421.19917297 C62.71959162 422.24073138 62.71765614 423.28228979 62.715662 424.35541058 C62.81531627 437.48410844 65.12346303 449.64091737 74.35546875 459.52734375 C80.01469548 464.59510736 85.47687142 465.60921535 92.9765625 465.31640625 C100.77404958 464.50039016 106.40232943 462.26361189 112.40625 457.20703125 C114 456 114 456 116 456 C116.39445312 455.14341797 116.39445312 455.14341797 116.796875 454.26953125 C118.07746397 451.85387478 119.58701466 449.85612277 121.25 447.6875 C138.20515563 423.57663419 138.17219355 389.23105435 139 361 C145.21036679 362.62826423 150.35491528 365.98515154 155.8125 369.25 C164.50028304 374.38803688 173.2390659 379.41104065 182.0625 384.3125 C191.15150584 389.36898035 200.13909017 394.55378225 209 400 C207.12100966 406.28356477 204.72378878 411.91849414 201.5 417.625 C201.06421631 418.3998877 200.62843262 419.17477539 200.17944336 419.97314453 C192.93451318 432.58435513 184.0666201 443.55350745 174 454 C173.38640625 454.66515625 172.7728125 455.3303125 172.140625 456.015625 C152.949825 476.30304214 123.19158551 487.43308403 95.65625 488.23828125 C82.5109467 488.44069987 70.46925141 488.46375784 58 484 C56.94296875 483.63777344 55.8859375 483.27554687 54.796875 482.90234375 C32.71908389 474.55240993 15.79984249 456.14056296 6.11938477 434.96533203 C5.81186279 434.27552246 5.50434082 433.58571289 5.1875 432.875 C4.89738037 432.23030762 4.60726074 431.58561523 4.30834961 430.92138672 C-31.70346794 347.00355061 0 248.31842213 0 157 C-222.75 157 -445.5 157 -675 157 C-680.19843451 197.24993734 -680.19843451 197.24993734 -669.125 231.0625 C-666.30495685 232.30663668 -664.93647364 231.83773272 -662 231 C-654.65180729 226.11614021 -648.66090608 218.5218395 -643.15625 211.72265625 C-639.27301012 206.98333849 -635.77260505 204.12850881 -630 202 C-629.37351562 201.76410156 -628.74703125 201.52820313 -628.1015625 201.28515625 C-618.72728161 198.35808487 -608.57926071 200.7163192 -600 205 C-586.13150961 213.60174437 -576.01291733 225.39559965 -569 240 C-568.5875 240.83660156 -568.175 241.67320312 -567.75 242.53515625 C-566.84036836 245.01477711 -566.5139299 246.39809533 -567 249 C-569.53285362 252.80551899 -572.75738573 255.8008136 -576 259 C-577.46144489 260.75112415 -578.89910277 262.52237005 -580.3125 264.3125 C-584.26740951 269.20409861 -588.4521085 273.82332838 -592.74462891 278.41601562 C-595.46390718 281.32669299 -598.12380485 284.26194928 -600.6875 287.3125 C-601.450625 288.199375 -602.21375 289.08625 -603 290 C-603.33 290 -603.66 290 -604 290 C-604.23783203 288.29457031 -604.23783203 288.29457031 -604.48046875 286.5546875 C-606.58612348 272.28095724 -609.2483418 256.49123979 -620.72265625 246.5 C-624.18852869 244.22626136 -627.74636277 243.32154311 -631.8828125 243.546875 C-637.26069846 244.69786166 -641.53700562 247.7751675 -645.6875 251.25 C-647.27707372 254.58053542 -647.06827489 256.70475757 -646.109375 260.23046875 C-644.70850964 263.72769953 -642.86053224 266.9219739 -641 270.1875 C-636.97263771 277.33490254 -635.42922586 283.74932523 -635 292 C-634.93167969 293.02222656 -634.86335938 294.04445313 -634.79296875 295.09765625 C-634.08571416 315.81759634 -639.47628912 334.65424703 -653.5625 350.125 C-676.69151128 372.22704746 -713.74164995 372.79054259 -743.75 373.5 C-764.11879151 373.98160853 -784.24928204 374.52874215 -804 380 C-804.65790527 380.17901855 -805.31581055 380.35803711 -805.99365234 380.54248047 C-825.32846914 385.9542981 -841.41349169 396.68915282 -851.875 414.125 C-854.28479351 420.2833612 -854.30912626 424.82424386 -852.00390625 430.93359375 C-850.50262799 434.02377352 -848.64719006 435.8234215 -846 438 C-845.41089844 438.50402344 -844.82179688 439.00804687 -844.21484375 439.52734375 C-837.63891323 444.87437274 -830.63351791 447.73923655 -822.07421875 447.3984375 C-798.98236587 444.40559253 -777.33753665 433.2309769 -756.52416992 423.39819336 C-660.54481414 378.093121 -660.54481414 378.093121 -617.75 392.1875 C-606.84483771 396.39974174 -598.28945754 402.85527902 -590 411 C-589.18789063 411.78761719 -588.37578125 412.57523438 -587.5390625 413.38671875 C-554.7888098 447.1184459 -544.22719055 504.66743347 -544.7265625 550.00390625 C-545.14903055 565.61640141 -549.32843463 580.10773425 -560.125 591.875 C-568.62253673 599.72331915 -578.73267364 603.94990423 -590 606 C-591.2375 606.226875 -592.475 606.45375 -593.75 606.6875 C-595.16422211 606.82080782 -596.58178404 606.91963443 -598 607 C-599.65515625 607.09667969 -599.65515625 607.09667969 -601.34375 607.1953125 C-631.57713843 608.10231415 -659.37462754 594.52637892 -685.97827148 581.69165039 C-741.45461827 554.94940078 -792.8802985 544.45840707 -852.5 564.6875 C-883.57033385 575.66163269 -911.33385933 593.30779118 -936 615 C-936.73347656 615.63421875 -937.46695313 616.2684375 -938.22265625 616.921875 C-940.16039599 618.60150627 -942.08105768 620.29894555 -944 622 C-944.81210937 622.70769531 -945.62421875 623.41539062 -946.4609375 624.14453125 C-951.74738592 628.80390846 -956.54115147 633.54832635 -961 639 C-961.64557861 639.77706299 -961.64557861 639.77706299 -962.30419922 640.56982422 C-975.75708325 656.79255366 -986.67183312 674.11359935 -996 693 C-996.66 693 -997.32 693 -998 693 C-1005.68088594 656.51579178 -990.27467241 616.24140297 -970.72509766 586.02978516 C-943.33936148 545.31498832 -903.76325144 513.26734104 -854.91015625 503.62890625 C-826.72446516 499.09554335 -798.23234806 500.19143244 -771 509 C-770.01515625 509.30035156 -769.0303125 509.60070312 -768.015625 509.91015625 C-749.04088397 516.37434911 -732.17455108 529.42191935 -715.56542969 540.38720703 C-694.07791177 554.62498021 -694.07791177 554.62498021 -671 566 C-669.75283203 566.53947266 -669.75283203 566.53947266 -668.48046875 567.08984375 C-653.86605543 572.49244629 -634.6818194 569.26119257 -620.69921875 563.234375 C-598.9978818 553.16418431 -582.2736904 536.59081072 -573.87890625 513.98046875 C-569.62941563 499.56997388 -572.73814066 483.34644472 -579 470 C-586.90078664 455.73945938 -598.07864148 446.83711168 -613.25390625 441.15625 C-645.00780494 432.14052929 -682.19282034 451.51445867 -710.63323975 463.63867188 C-728.49924954 471.23621566 -746.29297923 478.70191802 -765 484 C-765.83966309 484.24121582 -766.67932617 484.48243164 -767.54443359 484.73095703 C-787.55679787 490.31067215 -804.97962438 489.3120583 -823.40380859 479.27539062 C-833.62982335 473.49236651 -842.96776678 466.49280282 -852 459 C-853.04016928 458.15861267 -854.08054489 457.31748037 -855.12109375 456.4765625 C-872.01650005 442.68198967 -888.41255642 425.07763135 -891 402.4375 C-891.43729424 391.09518063 -888.21342962 382.65308469 -881 374 C-880.26523437 373.09701172 -880.26523437 373.09701172 -879.515625 372.17578125 C-867.74040361 359.156271 -850.79967028 352.33283781 -834 349 C-834.55744468 345.22640119 -835.54146559 342.78384156 -837.73046875 339.671875 C-838.28669922 338.87136719 -838.84292969 338.07085937 -839.41601562 337.24609375 C-840.00060547 336.42238281 -840.58519531 335.59867187 -841.1875 334.75 C-842.32734873 333.12015928 -843.46667369 331.48995212 -844.60546875 329.859375 C-845.16878906 329.05604736 -845.73210937 328.25271973 -846.3125 327.42504883 C-860.48507647 307.05812144 -866.50761887 286.95362456 -862.42285156 262.11279297 C-859.13011184 245.66050108 -848.79191012 231.42028851 -835.171875 221.9765625 C-811.20160805 207.03942571 -783.9242631 202.17420681 -756.1171875 200.5078125 C-755.41743301 200.46534393 -754.71767853 200.42287537 -753.99671936 200.37911987 C-750.44335032 200.16534106 -746.88996482 199.96457946 -743.3347168 199.78466797 C-742.02929932 199.71135254 -740.72388184 199.63803711 -739.37890625 199.5625 C-738.1988501 199.50191406 -737.01879395 199.44132813 -735.80297852 199.37890625 C-732.86618318 199.2701887 -732.86618318 199.2701887 -731 197 C-730.67 183.8 -730.34 170.6 -730 157 C-831.97 157 -933.94 157 -1039 157 C-1039 143.14 -1039 129.28 -1039 115 C-696.13 115 -353.26 115 0 115 C0 77.05 0 39.1 0 0 Z M-798 258 C-799.20269531 259.04800781 -799.20269531 259.04800781 -800.4296875 260.1171875 C-813.75238085 272.58380417 -822.8393589 289.57402469 -824.21484375 307.85546875 C-824.65181426 321.36659699 -820.94636539 332.49745203 -811.70703125 342.4765625 C-799.60191369 353.98508444 -787.39407034 357.6298348 -771.08984375 357.31640625 C-764.29732442 357.01493696 -758.3725284 355.39860386 -752 353 C-751.03449219 352.66097656 -750.06898438 352.32195312 -749.07421875 351.97265625 C-734.68166214 346.49997911 -721.83822832 337.70734722 -710 328 C-709.30390625 327.44570313 -708.6078125 326.89140625 -707.890625 326.3203125 C-703.40931213 322.65198117 -699.67324091 318.46584278 -696 314 C-695.49597656 313.40703125 -694.99195313 312.8140625 -694.47265625 312.203125 C-682.80056919 297.71363761 -677.36215708 279.45569338 -679 261 C-680.75718213 248.72675866 -684.93715213 240.82684949 -694.5 232.9375 C-727.76431246 212.66447375 -772.48283681 235.56849259 -798 258 Z M500 340 C499.2457373 340.17160645 498.49147461 340.34321289 497.71435547 340.52001953 C486.59833516 343.14701567 476.25763449 347.00025233 466 352 C464.85660156 352.556875 463.71320313 353.11375 462.53515625 353.6875 C437.68069293 366.4545965 412.24006677 390.40038603 403.19921875 417.390625 C402.30704708 421.96863719 403.53396779 425.28747111 405.7734375 429.1875 C412.05140825 438.46450137 423.19640104 443.51733312 433.875 445.6875 C487.12240395 455.22160136 544.96343329 437.12881668 588.6796875 407.06640625 C596.92252896 401.280955 604.98909498 395.25628669 612 388 C612.96486328 387.01386719 612.96486328 387.01386719 613.94921875 386.0078125 C617.71039938 381.9339045 620.38874423 378.70505385 621 373 C620.20876801 366.78317724 616.58363623 362.85985675 611.875 359.00390625 C581.1786056 337.6081857 535.79211335 331.84191324 500 340 Z " fill="#EEB120" transform="translate(1611,130)"/>
<path d="M0 0 C3.83181855 1.63173134 6.76167574 4.17562401 9.875 6.875 C10.44307373 7.36258789 11.01114746 7.85017578 11.59643555 8.35253906 C12.79746967 9.38364191 13.99723366 10.41622583 15.19580078 11.45019531 C16.92245824 12.93339173 18.6599614 14.40251782 20.40234375 15.8671875 C27.5801863 21.9219452 34.51334858 28.19072667 41.31958008 34.66113281 C44.38509906 37.57193152 47.4729489 40.42650103 50.68383789 43.17675781 C55.2614315 47.17134793 59.55866745 51.41454971 63.84765625 55.71484375 C64.66318466 56.52941544 65.47871307 57.34398712 66.31895447 58.1832428 C68.03198008 59.89559193 69.74375965 61.60918842 71.4543457 63.32397461 C74.05503552 65.93002015 76.66101956 68.53068522 79.26757812 71.13085938 C80.94042486 72.80436699 82.61296134 74.47818482 84.28515625 76.15234375 C85.44012352 77.30427467 85.44012352 77.30427467 86.61842346 78.47947693 C90.7172185 82.59586372 94.66008313 86.79041545 98.44020081 91.2020874 C101.15371164 94.32983316 104.02716952 97.30758918 106.875 100.3125 C111.73353164 105.47929621 116.38067933 110.7361638 120.80859375 116.28125 C122.78730201 118.736118 124.8183026 121.1362074 126.87548828 123.52539062 C133.94087143 131.74784008 140.49915167 140.32786832 147 149 C147.57685547 149.76650879 148.15371094 150.53301758 148.74804688 151.32275391 C165.84547011 174.08310821 181.46754578 197.94051683 195 223 C195.44666016 223.82097168 195.89332031 224.64194336 196.35351562 225.48779297 C220.72794081 270.4848289 237.07445094 318.07672859 243 369 C243.08292297 369.64659576 243.16584595 370.29319153 243.25128174 370.9593811 C243.94040733 376.60181908 244.17400052 382.16224359 244.203125 387.84375 C244.21018463 388.76225235 244.21724426 389.6807547 244.22451782 390.62709045 C244.45489252 429.43949871 244.45489252 429.43949871 241 448 C240.79068848 449.12599609 240.58137695 450.25199219 240.36572266 451.41210938 C237.47184084 466.52665137 233.96002262 481.42507225 229 496 C228.73026367 496.79792969 228.46052734 497.59585937 228.18261719 498.41796875 C218.21089909 527.35550362 203.4609577 554.92448931 186 580 C185.5889502 580.59119629 185.17790039 581.18239258 184.75439453 581.79150391 C180.13036999 588.41247149 175.36726008 594.93084698 170.5 601.375 C169.86771484 602.22408936 169.86771484 602.22408936 169.22265625 603.09033203 C168.19678921 604.43194749 167.10399986 605.72190786 166 607 C165.34 607 164.68 607 164 607 C164.13575439 606.26700684 164.27150879 605.53401367 164.41137695 604.77880859 C165.76956212 597.4090878 167.08722063 590.03313099 168.3671875 582.64941406 C168.74993596 580.44211313 169.1367592 578.23550603 169.53125 576.03027344 C175.19926379 543.8288701 174.58639967 510.5413315 155.8671875 482.62890625 C152.34622519 477.6715681 148.71734547 472.81173198 145 468 C144.57702637 467.44940918 144.15405273 466.89881836 143.71826172 466.33154297 C138.51203738 459.56441723 133.1721133 452.92878448 127.625 446.4375 C126.89349731 445.58019287 126.89349731 445.58019287 126.1472168 444.70556641 C123.22826055 441.32160373 120.19772011 438.12213764 117 435 C113.81869018 439.60261743 110.64745805 444.21193045 107.48730469 448.82910156 C106.57331702 450.16317549 105.65767467 451.49611982 104.73925781 452.82714844 C79.42673893 489.55884877 46.1342049 540.10963598 54.6875 587.31640625 C58.22326228 603.74764609 66.26867402 618.24542708 77.6796875 630.46875 C80.06325487 633.06900531 82.28634682 635.75414449 84.5 638.5 C87.36184235 642.0401683 90.29341532 645.46223623 93.375 648.8125 C98.46033858 654.40282865 103.08101282 660.31086052 107.67871094 666.30224609 C108.88658144 667.85426596 110.1328854 669.37617719 111.3828125 670.89453125 C130.44248943 694.63611488 134.98240214 724.50745672 132.625 754.125 C132 758 132 758 130 760 C129.86013672 759.44763672 129.72027344 758.89527344 129.57617188 758.32617188 C124.92894545 740.29015163 118.87398939 725.47073099 107 711 C106.46503906 710.32453125 105.93007813 709.6490625 105.37890625 708.953125 C101.69172615 704.43657918 97.48937016 700.70373038 93 697 C92.48824219 696.57589844 91.97648437 696.15179687 91.44921875 695.71484375 C81.64743345 687.62555428 71.43796447 680.24045456 61 673 C31.53392201 652.55209272 4.58030437 629.37175617 -2.33789062 592.41137695 C-12.05091171 535.57754447 14.73218758 482.81094952 43.0703125 435.58984375 C48.40519774 426.68749858 53.48855111 417.64781009 58.54785156 408.58691406 C59.92112595 406.14050932 61.31251044 403.70552923 62.7109375 401.2734375 C76.20736962 377.67834803 85.66736325 352.43765131 92 326 C103.99353356 331.9126438 113.9698107 339.90872924 123.75390625 348.94140625 C125.70954276 350.73378962 127.71044258 352.43039944 129.75 354.125 C141.72667487 364.63170069 151.70154528 377.13091397 161 390 C161.4429541 390.6074707 161.8859082 391.21494141 162.34228516 391.84082031 C170.83545061 403.60661156 179.40350331 417.21050993 184 431 C180.43863542 395.92200658 171.9103428 360.66379294 156 329 C155.58250488 328.16082031 155.16500977 327.32164062 154.73486328 326.45703125 C131.10300434 279.27841188 96.62690274 243.71904407 50 219 C49.82726562 219.83015625 49.65453125 220.6603125 49.4765625 221.515625 C38.74108756 268.59412976 12.82441523 311.56622289 -10.4375 353.375 C-36.2690379 399.82313487 -61.5493063 446.90358161 -70 500 C-70.12842285 500.75861328 -70.2568457 501.51722656 -70.38916016 502.29882812 C-78.29201842 550.35704871 -68.00369333 605.68980192 -39.515625 645.59765625 C-38.68039289 646.7342104 -37.84183936 647.8683311 -37 649 C-36.57783203 649.57476074 -36.15566406 650.14952148 -35.72070312 650.74169922 C-23.4424543 667.3265669 -8.69527012 682.62898785 7 696 C8.14816177 696.99882141 9.29518902 697.99894769 10.44140625 699 C16.96479477 704.69186143 23.52989687 710.30760191 30.2578125 715.7578125 C34.37654987 719.12555502 38.42036304 722.57946744 42.46875 726.03125 C44.45245884 727.717119 46.45665636 729.36588958 48.48852539 730.99389648 C79.15941503 755.62646319 104.20494898 786.72169889 108.81469727 826.84667969 C111.68245582 860.17162096 102.54406577 891.18689212 91 922 C90.67 922 90.34 922 90 922 C89.96036133 921.3922876 89.92072266 920.7845752 89.87988281 920.15844727 C87.11366292 879.5935901 71.85573783 847.54937441 41.0625 820.375 C39.70935078 819.24877642 38.35504928 818.12393675 37 817 C35.56720703 815.73542969 35.56720703 815.73542969 34.10546875 814.4453125 C24.18197966 805.69890943 13.66484208 797.8146837 3 790 C1.81470703 789.13060791 1.81470703 789.13060791 0.60546875 788.24365234 C-8.43025881 781.63200548 -17.56923737 775.18849689 -26.8125 768.87109375 C-44.9149491 756.48634828 -62.92356086 743.89903686 -80.20996094 730.39111328 C-82.26982812 728.79030542 -84.34168539 727.20567061 -86.4140625 725.62109375 C-94.01347817 719.79123141 -101.4651848 713.94774696 -108.4453125 707.37890625 C-110.52207188 705.44504315 -112.62952364 703.58333524 -114.77734375 701.73046875 C-125.7608736 692.15458932 -136.229121 681.651112 -145 670 C-145.42974121 669.43603516 -145.85948242 668.87207031 -146.30224609 668.29101562 C-152.73013322 659.83433365 -158.6828257 651.20912663 -164 642 C-164.65613281 640.8759375 -165.31226563 639.751875 -165.98828125 638.59375 C-182.40563138 609.66414758 -188.64543769 577.43718535 -188.375 544.5 C-188.37067963 543.49664612 -188.36635925 542.49329224 -188.36190796 541.45953369 C-188.27981047 525.13686825 -187.50665259 509.15261271 -185 493 C-184.83371094 491.88705566 -184.66742188 490.77411133 -184.49609375 489.62744141 C-172.84301032 413.35369441 -137.82158867 343.53786102 -102.08148193 276.04736328 C-99.52744573 271.21229411 -97.0166893 266.35457513 -94.5 261.5 C-91.14083281 255.02465666 -87.7723668 248.55558528 -84.34472656 242.11621094 C-44.72804313 167.52986433 -12.59235458 88.9169503 -1.44506836 4.72607422 C-1 2 -1 2 0 0 Z " fill="#EDB01F" transform="translate(188,0)"/>
<path d="M0 0 C0.85207031 0.56976563 1.70414063 1.13953125 2.58203125 1.7265625 C10.35593893 7.13159702 17.20793824 13.43465229 24 20 C24.56936279 20.54019775 25.13872559 21.08039551 25.7253418 21.63696289 C52.75425002 47.80875697 67.41136974 87.91470069 68.203125 125.04296875 C68.22932899 127.75833594 68.24768097 130.47215716 68.25 133.1875 C68.25067474 133.89764252 68.25134949 134.60778503 68.25204468 135.33944702 C68.17994557 183.27592332 48.99876255 228.04428759 19 265 C17.824375 266.46373047 17.824375 266.46373047 16.625 267.95703125 C12.20561601 273.41407465 7.67168184 278.75750173 3 284 C-0.04352253 283.37304285 -2.33650255 282.37172918 -4.9921875 280.76953125 C-6.15596924 280.07077881 -6.15596924 280.07077881 -7.34326172 279.35791016 C-8.17873535 278.8479248 -9.01420898 278.33793945 -9.875 277.8125 C-10.75559082 277.27931152 -11.63618164 276.74612305 -12.54345703 276.19677734 C-21.8231619 270.54975539 -30.97766643 264.70788904 -40.12109375 258.84375 C-45.19813263 255.5922407 -50.28735838 252.35988317 -55.375 249.125 C-57.23703042 247.94018472 -59.09901453 246.75529664 -60.9609375 245.5703125 C-61.74259277 245.07289551 -62.52424805 244.57547852 -63.32958984 244.06298828 C-63.8808252 243.71220215 -64.43206055 243.36141602 -65 243 C-60.88093354 238.13937695 -56.66589184 233.4013937 -52.3125 228.75 C-51.705271 228.0995874 -51.09804199 227.4491748 -50.47241211 226.77905273 C-45.87889241 221.88214764 -41.15862435 217.1372041 -36.38671875 212.4140625 C-33.70900305 209.70566921 -31.19652415 206.90113615 -28.7265625 204.00390625 C-26.78258954 201.74766614 -24.76676482 199.56636107 -22.75 197.375 C7.36738911 163.82586758 18.75874666 124.985136 17.16845703 80.11767578 C16.04885072 59.39684595 10.25446216 38.83153667 -5.28515625 24.25 C-22.7033447 9.8142064 -45.95706112 6.7086203 -67.875 8.27734375 C-97.21451762 11.03625248 -122.27779449 26.69189879 -141.1875 48.875 C-169.73191942 84.37371269 -187.95890777 128.99867335 -188.20532227 174.85375977 C-188.21522186 176.00599533 -188.22512146 177.1582309 -188.23532104 178.34538269 C-188.26673185 182.12737014 -188.29161224 185.90937013 -188.31640625 189.69140625 C-188.33699343 192.32413547 -188.35799035 194.95686152 -188.37937927 197.58958435 C-188.42909942 203.79413792 -188.47411408 209.99871617 -188.51740164 216.20331758 C-188.56695188 223.27234466 -188.62180347 230.34132757 -188.67708123 237.41031182 C-188.79058341 251.940166 -188.89749038 266.47006415 -189 281 C-192.84018245 279.74859557 -196.37644232 278.41894199 -199.94921875 276.53125 C-201.33137573 275.80542725 -201.33137573 275.80542725 -202.74145508 275.06494141 C-203.7136499 274.54851074 -204.68584473 274.03208008 -205.6875 273.5 C-206.69901123 272.96681152 -207.71052246 272.43362305 -208.75268555 271.88427734 C-210.83047383 270.78878436 -212.90737823 269.69161334 -214.98339844 268.59277344 C-217.77820406 267.11710883 -220.57877013 265.6533308 -223.3828125 264.1953125 C-225.02604713 263.33855214 -226.66927659 262.48178187 -228.3125 261.625 C-229.0449292 261.24537109 -229.7773584 260.86574219 -230.53198242 260.47460938 C-231.91169484 259.75183553 -233.28420361 259.01504966 -234.64718401 258.26119769 C-236.25986318 257.39674112 -237.90307589 256.58761708 -239.56751001 255.82756555 C-246.43365256 252.38540566 -246.43365256 252.38540566 -247.91729093 248.75611234 C-248.26489624 245.9550897 -248.28586858 243.30541059 -248.20254517 240.48379517 C-248.21108941 239.42511211 -248.21963366 238.36642905 -248.22843683 237.27566469 C-248.24491358 233.72714034 -248.1899198 230.1833424 -248.13525391 226.63525391 C-248.13243323 224.09253043 -248.13401638 221.54979881 -248.13967896 219.00708008 C-248.14195627 213.53246531 -248.11359769 208.05937321 -248.05730057 202.58507156 C-247.9759616 194.67055459 -247.94997973 186.7566136 -247.93742065 178.84172396 C-247.91554454 166.00011264 -247.84902431 153.15913722 -247.75439453 140.31787109 C-247.66257704 127.84524717 -247.59180667 115.37279608 -247.54931641 102.89990234 C-247.54668917 102.13083383 -247.54406194 101.36176531 -247.54135509 100.56939168 C-247.52830453 96.71112619 -247.51566749 92.85285948 -247.50323606 88.99459195 C-247.39960035 56.99583109 -247.21526904 24.99825297 -247 -7 C-227.2 -7 -207.4 -7 -187 -7 C-186.67 5.87 -186.34 18.74 -186 32 C-181.71 28.7 -177.42 25.4 -173 22 C-147.35990058 2.35675625 -121.66157395 -14.40236853 -89 -19 C-88.1028125 -19.13019531 -87.205625 -19.26039063 -86.28125 -19.39453125 C-57.11689573 -22.94538607 -24.40437858 -16.78067218 0 0 Z " fill="#EAA919" transform="translate(1323,348)"/>
<path d="M0 0 C0.90270126 -0.00525696 1.80540253 -0.01051392 2.73545837 -0.01593018 C5.72420471 -0.02915156 8.71241997 -0.02038448 11.70117188 -0.01025391 C13.77478132 -0.01227402 15.84839007 -0.01518494 17.92199707 -0.01895142 C22.26984413 -0.02337767 26.61750642 -0.01693395 30.96533203 -0.00292969 C36.54433143 0.01416227 42.1228979 0.00432272 47.70188141 -0.01364708 C51.98434727 -0.02447672 56.26671014 -0.02104233 60.54917908 -0.0132637 C62.60652212 -0.01125943 64.66387446 -0.0137289 66.72120667 -0.02070236 C69.59433844 -0.0283033 72.46676466 -0.01673162 75.33984375 0 C76.19396347 -0.00607269 77.04808319 -0.01214539 77.92808533 -0.0184021 C83.73197512 0.04435841 83.73197512 0.04435841 85.88697052 1.73621178 C87.816207 4.22036231 87.56768904 6.29184895 87.54492188 9.38818359 C87.55652344 10.96599609 87.55652344 10.96599609 87.56835938 12.57568359 C87.16992188 15.38818359 87.16992188 15.38818359 85.99853516 17.03857422 C83.45792157 18.91367594 81.65110772 18.77246555 78.51367188 18.79443359 C77.40894531 18.81634766 76.30421875 18.83826172 75.16601562 18.86083984 C72.83528646 18.87906901 70.50455729 18.89729818 68.17382812 18.91552734 C67.06910156 18.93744141 65.964375 18.95935547 64.82617188 18.98193359 C63.81361328 18.98902344 62.80105469 18.99611328 61.7578125 19.00341797 C59.15072841 19.18201517 59.15072841 19.18201517 57.37890625 20.72607422 C54.58816683 24.56277736 55.03490914 28.73798388 55.05639648 33.25610352 C55.05625046 34.05633438 55.05610443 34.85656525 55.05595398 35.68104553 C55.05665083 38.32694201 55.06443259 40.97276816 55.07226562 43.61865234 C55.07413061 45.45282452 55.07555414 47.28699719 55.07655334 49.12117004 C55.08037215 53.94954808 55.09019703 58.77789605 55.10125732 63.60626221 C55.11148511 68.53291416 55.1160539 73.45957096 55.12109375 78.38623047 C55.13181985 88.05356139 55.14888866 97.72086999 55.16992188 107.38818359 C56.29625498 106.26777509 57.42174444 105.14651844 58.546875 104.02490234 C59.17372192 103.40059326 59.80056885 102.77628418 60.44641113 102.13305664 C62.27338837 100.28343467 63.99228854 98.37395367 65.66992188 96.38818359 C67.91550127 93.78170751 70.215437 91.29883839 72.66992188 88.88818359 C75.1038192 86.49765193 77.38347746 84.03772097 79.60742188 81.45068359 C82.64671839 77.92183596 85.88009035 74.65813332 89.19726562 71.39208984 C91.74330017 68.80572208 94.09013744 66.07283079 96.45507812 63.32177734 C98.67039567 60.82386804 101.03890358 58.50793371 103.41992188 56.16943359 C105.877029 53.66844955 108.13482499 51.0104726 110.41992188 48.35302734 C112.10153943 46.46496121 113.85249977 44.70725452 115.66992188 42.95068359 C123.75679437 35.24938394 123.75679437 35.24938394 127.23242188 25.26318359 C127.20148438 23.84005859 127.20148438 23.84005859 127.16992188 22.38818359 C121.45975508 19.10024682 116.77902233 18.9596622 110.31445312 18.79443359 C107.16992188 18.38818359 107.16992188 18.38818359 105.26757812 17.23193359 C103.68595902 14.57526378 103.77234138 12.45913127 103.79492188 9.38818359 C103.78332031 7.81037109 103.78332031 7.81037109 103.77148438 6.20068359 C104.16992188 3.38818359 104.16992188 3.38818359 105.20031738 1.73666382 C108.27094765 -0.36562839 111.48892248 -0.02868721 115.08203125 0 C115.88719681 -0.00525696 116.69236237 -0.01051392 117.52192688 -0.01593018 C120.18603864 -0.02914465 122.84955393 -0.02038713 125.51367188 -0.01025391 C127.36307897 -0.01227423 129.21248529 -0.01518532 131.06188965 -0.01895142 C134.93896058 -0.02337673 138.81582424 -0.01693707 142.69287109 -0.00292969 C147.66654711 0.01416233 152.6397375 0.00432225 157.61339569 -0.01364708 C161.43263417 -0.02447934 165.25175722 -0.02104115 169.07099915 -0.0132637 C170.90505531 -0.01126015 172.7391219 -0.0137264 174.57316589 -0.02070236 C177.13499783 -0.02830771 179.69603953 -0.01672592 182.2578125 0 C183.01842484 -0.00607269 183.77903717 -0.01214539 184.56269836 -0.0184021 C189.66638279 0.04343799 189.66638279 0.04343799 192.13952637 1.73666382 C193.71894573 4.26816002 193.56661319 6.43816425 193.54492188 9.38818359 C193.55265625 10.44005859 193.56039063 11.49193359 193.56835938 12.57568359 C193.16992188 15.38818359 193.16992188 15.38818359 192.02148438 17.23583984 C189.38640013 18.87581844 187.25696523 18.76260699 184.16992188 18.82568359 C163.99706076 20.01100692 151.19385875 33.39100814 138.16992188 47.38818359 C136.97054923 48.74822087 135.77760728 50.11396164 134.59179688 51.48583984 C131.28892075 55.3061415 127.77709515 58.8570245 124.16992188 62.38818359 C119.77268244 66.73432609 115.4831075 71.09993369 111.50195312 75.83740234 C110.12872654 77.43614415 108.6773673 78.91631211 107.16992188 80.38818359 C108.84443918 85.44181666 111.76877796 89.52208952 114.73242188 93.88818359 C115.33320557 94.78126221 115.93398926 95.67434082 116.55297852 96.59448242 C118.33948229 99.24730202 120.1306431 101.8969171 121.92346191 104.54547119 C123.7370425 107.22659015 125.54691561 109.91020598 127.35708618 112.59362793 C132.09620051 119.61891652 136.84180704 126.63977574 141.59179688 133.65771484 C145.43057561 139.32943425 149.26087608 145.0066818 153.07798767 150.69300842 C155.1699724 153.80893441 157.26516326 156.92269781 159.36062622 160.0362854 C160.34744421 161.50445053 161.33273071 162.97364637 162.31637573 164.44393921 C171.19221372 179.37639257 171.19221372 179.37639257 185.16992188 188.38818359 C189.09656184 188.7611734 192.93298586 188.94984065 196.87695312 189.01708984 C200.16992188 189.38818359 200.16992188 189.38818359 202.09570312 190.54052734 C203.64310229 193.2020539 203.56741595 195.32898978 203.54492188 198.38818359 C203.55265625 199.44005859 203.56039063 200.49193359 203.56835938 201.57568359 C203.11489147 204.77663351 202.64759897 205.43760695 200.16992188 207.38818359 C197.21777677 207.68450429 194.47660995 207.79783393 191.5234375 207.77636719 C190.64024338 207.78162415 189.75704926 207.7868811 188.84709167 207.79229736 C185.92327264 207.80551749 182.99999659 207.79675215 180.07617188 207.78662109 C178.04740291 207.78864125 176.01863464 207.7915522 173.98986816 207.7953186 C169.73617648 207.79974469 165.48267366 207.7933017 161.22900391 207.77929688 C155.7710695 207.7622049 150.31357764 207.77204456 144.85565948 207.79001427 C140.66583917 207.80084439 136.47612411 207.7974093 132.28630066 207.78963089 C130.27361499 207.78762675 128.26091982 207.79009563 126.24824524 207.79706955 C123.43737396 207.80467129 120.6272237 207.79309777 117.81640625 207.77636719 C116.98098801 207.78243988 116.14556976 207.78851257 115.28483582 207.79476929 C109.60667056 207.73201846 109.60667056 207.73201846 107.45761871 206.04015541 C105.52194433 203.55690048 105.77213289 201.4874858 105.79492188 198.38818359 C105.78332031 196.81037109 105.78332031 196.81037109 105.77148438 195.20068359 C106.22726608 191.98340099 106.64317815 191.31679916 109.16992188 189.38818359 C111.390625 188.97167969 111.390625 188.97167969 113.95117188 188.91162109 C115.33755859 188.86521484 115.33755859 188.86521484 116.75195312 188.81787109 C117.71488281 188.79982422 118.6778125 188.78177734 119.66992188 188.76318359 C121.57627302 188.7121434 123.48253466 188.65760787 125.38867188 188.59912109 C126.23365234 188.58155762 127.07863281 188.56399414 127.94921875 188.54589844 C130.34363559 188.46818282 130.34363559 188.46818282 133.16992188 187.38818359 C132.61179963 183.62271335 131.63660689 181.18171852 129.45898438 178.07177734 C128.88349854 177.23984863 128.3080127 176.40791992 127.71508789 175.55078125 C127.08143311 174.65149902 126.44777832 173.7522168 125.79492188 172.82568359 C124.4206276 170.84302391 123.04695968 168.85992997 121.67382812 166.87646484 C120.94180176 165.82410645 120.20977539 164.77174805 119.45556641 163.6875 C115.9091402 158.57910028 112.42153954 153.43060645 108.93222046 148.28311157 C107.73330698 146.51448928 106.53331579 144.74660165 105.33325195 142.97875977 C97.54279119 131.49474849 89.84344399 119.95062938 82.16992188 108.38818359 C77.10937649 112.58268417 72.55129109 116.98811611 68.10742188 121.82568359 C67.52154297 122.45539063 66.93566406 123.08509766 66.33203125 123.73388672 C64.59717231 125.60738034 62.87120691 127.48406078 61.16992188 129.38818359 C60.66748962 129.85175766 60.16505737 130.31533173 59.6473999 130.79295349 C55.33470475 135.09240503 54.46680633 138.3680186 54.38754272 144.39701843 C54.40596222 145.39828262 54.42438171 146.39954681 54.44335938 147.43115234 C54.44236237 148.47717117 54.44136536 149.52319 54.44033813 150.60090637 C54.44500185 152.80213051 54.46435452 155.00336707 54.49755859 157.2043457 C54.54492401 160.57583578 54.53864876 163.94417769 54.52539062 167.31591797 C54.53653972 169.45851496 54.55075668 171.60109865 54.56835938 173.74365234 C54.56653656 174.75098923 54.56471375 175.75832611 54.56283569 176.79618835 C54.63916742 182.20495356 54.63916742 182.20495356 56.84790039 187.02197266 C59.73152232 188.71861321 61.58461131 188.88594716 64.92382812 188.89208984 C66.02533203 188.91078125 67.12683594 188.92947266 68.26171875 188.94873047 C69.40705078 188.949375 70.55238281 188.95001953 71.73242188 188.95068359 C74.0046476 188.95960428 76.27686907 188.98115376 78.54882812 189.01708984 C80.0581189 189.01817749 80.0581189 189.01817749 81.59790039 189.01928711 C84.16992188 189.38818359 84.16992188 189.38818359 85.99633789 190.7355957 C87.775513 193.24094963 87.56720436 195.35776624 87.54492188 198.38818359 C87.55652344 199.96599609 87.55652344 199.96599609 87.56835938 201.57568359 C87.11476098 204.77755464 86.65157422 205.43987694 84.16992188 207.38818359 C81.1579896 207.68457585 78.352873 207.79778948 75.33984375 207.77636719 C74.43714249 207.78162415 73.53444122 207.7868811 72.60438538 207.79229736 C69.61563904 207.80551875 66.62742378 207.79675167 63.63867188 207.78662109 C61.56506243 207.78864121 59.49145368 207.79155213 57.41784668 207.7953186 C53.06999962 207.79974486 48.72233733 207.79330114 44.37451172 207.77929688 C38.79551232 207.76220491 33.21694585 207.77204447 27.63796234 207.79001427 C23.35549648 207.80084391 19.07313361 207.79740951 14.79066467 207.78963089 C12.73332163 207.78762662 10.67596929 207.79009609 8.61863708 207.79706955 C5.74550531 207.80467049 2.87307909 207.79309881 0 207.77636719 C-0.85411972 207.78243988 -1.70823944 207.78851257 -2.58824158 207.79476929 C-8.39213137 207.73200878 -8.39213137 207.73200878 -10.54712677 206.04015541 C-12.47636325 203.55600487 -12.22784529 201.48451823 -12.20507812 198.38818359 C-12.2128125 197.33630859 -12.22054688 196.28443359 -12.22851562 195.20068359 C-11.83007812 192.38818359 -11.83007812 192.38818359 -10.64501953 190.73779297 C-8.16404767 188.89291639 -6.46524371 189.0043767 -3.39257812 188.98193359 C-2.33296875 188.96001953 -1.27335937 188.93810547 -0.18164062 188.91552734 C2.05273438 188.89729818 4.28710938 188.87906901 6.52148438 188.86083984 C7.58109375 188.83892578 8.64070313 188.81701172 9.73242188 188.79443359 C10.70308594 188.78734375 11.67375 188.78025391 12.67382812 188.77294922 C15.14707964 188.57462082 15.14707964 188.57462082 16.80338001 187.27818584 C18.83826293 184.4638313 18.53853729 182.21034916 18.53068542 178.76338196 C18.53453034 177.74885784 18.53453034 177.74885784 18.53845292 176.71383828 C18.54340275 174.4426923 18.52687893 172.17220799 18.51049805 169.90112305 C18.50965203 168.27508561 18.51012642 166.64904702 18.51182556 165.02301025 C18.51268793 160.6038074 18.49502311 156.18484776 18.47410369 151.76570153 C18.45537715 147.14924867 18.45358963 142.53279052 18.45002747 137.91630554 C18.44069515 129.17214922 18.41606535 120.42810514 18.385979 111.68399829 C18.35247186 101.73008313 18.33595826 91.77616268 18.32089269 81.82220519 C18.28951681 61.34413529 18.23673329 40.86616651 18.16992188 20.38818359 C14.98929495 19.54213404 12.15180978 19.23997209 8.85351562 19.17724609 C7.33661133 19.13470703 7.33661133 19.13470703 5.7890625 19.09130859 C3.66424187 19.03913375 1.539212 18.99489009 -0.5859375 18.95849609 C-1.59591797 18.92755859 -2.60589844 18.89662109 -3.64648438 18.86474609 C-5.03009155 18.83501709 -5.03009155 18.83501709 -6.44165039 18.8046875 C-9.25131142 18.31472719 -10.16409602 17.67158497 -11.83007812 15.38818359 C-12.22851562 12.57568359 -12.22851562 12.57568359 -12.20507812 9.38818359 C-12.2128125 8.33630859 -12.22054688 7.28443359 -12.22851562 6.20068359 C-11.24419349 -0.74747267 -5.85786283 -0.04164873 0 0 Z " fill="#D7AD50" transform="translate(1763.830078125,667.61181640625)"/>
<path d="M0 0 C19.47 0 38.94 0 59 0 C59 98.01 59 196.02 59 297 C55.25357906 296.06339477 52.66793193 294.89173175 49.29296875 293.078125 C47.59237305 292.1667981 47.59237305 292.1667981 45.85742188 291.23706055 C44.63398125 290.57495334 43.41067685 289.91259437 42.1875 289.25 C40.93430431 288.57516615 39.6810485 287.90044394 38.42773438 287.22583008 C27.57068158 281.36694436 16.82132443 275.32305139 6.12109375 269.18237305 C4.11244789 268.06268245 2.05686465 267.02843232 0 266 C0 178.22 0 90.44 0 0 Z " fill="#EEB321" transform="translate(1449,328)"/>
<path d="M0 0 C19.47 0 38.94 0 59 0 C59 98.01 59 196.02 59 297 C54.85026101 295.61675367 51.70214051 294.45206787 47.97265625 292.41796875 C47.02632324 291.90419678 46.07999023 291.3904248 45.10498047 290.86108398 C44.10096191 290.30880127 43.09694336 289.75651855 42.0625 289.1875 C41.01723145 288.61652588 39.97196289 288.04555176 38.89501953 287.45727539 C31.36275995 283.32994029 23.85957182 279.15063748 16.375 274.9375 C15.42246338 274.40213623 14.46992676 273.86677246 13.48852539 273.31518555 C12.59254639 272.80769775 11.69656738 272.30020996 10.7734375 271.77734375 C9.99403809 271.33640381 9.21463867 270.89546387 8.41162109 270.44116211 C7.61578613 269.96557861 6.81995117 269.48999512 6 269 C4.97514181 268.52769329 3.95028362 268.05538658 2.89436913 267.56876755 C-0.30294866 264.7311315 -0.44112605 264.3762631 -0.73828697 260.36920547 C-0.76356443 258.3991436 -0.75529888 256.4284917 -0.7215271 254.45855713 C-0.72665365 253.37299805 -0.7317802 252.28743898 -0.7370621 251.16898417 C-0.74697288 247.51863388 -0.71389825 243.86992529 -0.68115234 240.21972656 C-0.67946054 237.60833271 -0.68040865 234.99693601 -0.68380737 232.38554382 C-0.68695451 226.75690862 -0.6681198 221.1286905 -0.63438034 215.50016022 C-0.58563085 207.36231152 -0.56999306 199.22466464 -0.56245239 191.08668575 C-0.54931853 177.88368526 -0.50938338 164.6809071 -0.45263672 151.47802734 C-0.39756791 138.65219231 -0.35509481 125.82641766 -0.32958984 113.00048828 C-0.3280135 112.20998535 -0.32643716 111.41948241 -0.32481305 110.60502484 C-0.31698286 106.63932888 -0.30940061 102.67363249 -0.30194163 98.70793581 C-0.23973472 65.80509352 -0.12912094 32.90266465 0 0 Z " fill="#F5C42F" transform="translate(1881,328)"/>
<path d="M0 0 C19.14 0 38.28 0 58 0 C58 98.01 58 196.02 58 297 C53.83961304 295.61320435 50.93818871 294.56689307 47.296875 292.453125 C46.4109668 291.94434814 45.52505859 291.43557129 44.61230469 290.91137695 C43.66774414 290.36312256 42.72318359 289.81486816 41.75 289.25 C31.70378214 283.48742785 21.56058683 277.94520338 11.34277344 272.49511719 C10.29637695 271.93598633 9.24998047 271.37685547 8.171875 270.80078125 C7.2447168 270.30747314 6.31755859 269.81416504 5.36230469 269.3059082 C3 268 3 268 0 266 C-0.37259549 264.04600322 -0.37259549 264.04600322 -0.36914349 261.59968376 C-0.37511663 260.66911844 -0.38108978 259.73855312 -0.38724393 258.77978885 C-0.37413614 257.23603901 -0.37413614 257.23603901 -0.36076355 255.66110229 C-0.36332682 254.57316852 -0.3658901 253.48523474 -0.36853105 252.36433327 C-0.37349881 248.6944014 -0.35692651 245.02487486 -0.34057617 241.35498047 C-0.33973055 238.73402923 -0.34020377 236.11307729 -0.34190369 233.49212646 C-0.34347905 227.83684923 -0.33404247 222.18167559 -0.31719017 216.52642441 C-0.29284025 208.34983253 -0.28499902 200.17329089 -0.2812262 191.99666668 C-0.2746554 178.73163609 -0.25467724 165.46666074 -0.22631836 152.20166016 C-0.19879402 139.31364214 -0.1775525 126.42563912 -0.16479492 113.53759766 C-0.16400675 112.74358228 -0.16321858 111.9495669 -0.16240653 111.13149045 C-0.1584915 107.14826886 -0.15470036 103.16504717 -0.15097082 99.1818254 C-0.11985535 66.12116798 -0.06454177 33.06061326 0 0 Z " fill="#E29308" transform="translate(615,328)"/>
<path d="M0 0 C10.29924706 8.56783118 16.91992826 20.75426018 19 34 C20.3806148 54.05286408 14.58358281 70.93248552 1.44140625 86.25390625 C0.63574219 87.16011719 -0.16992188 88.06632813 -1 89 C-1.85722656 89.97839844 -2.71445313 90.95679688 -3.59765625 91.96484375 C-12.32672814 101.79376601 -21.92899254 110.44579456 -32.16015625 118.6953125 C-36.94823859 122.58110147 -41.63097084 126.59091763 -46.32958984 130.58398438 C-48.00375841 132.00318603 -49.68271475 133.41650771 -51.36328125 134.828125 C-64.91097751 146.16319981 -64.91097751 146.16319981 -77 159 C-62.22342259 160.43435991 -47.50738669 161.22551954 -32.66488647 161.29956055 C-31.01936466 161.30815515 -29.37386109 161.32178961 -27.72842407 161.34057617 C-25.39549286 161.36443794 -23.0635005 161.36713574 -20.73046875 161.36328125 C-20.03770844 161.37241043 -19.34494812 161.38153961 -18.63119507 161.39094543 C-14.03023084 161.3476965 -10.85502175 160.52266843 -7 158 C-2.34756414 151.83405112 -0.55200469 143.74446708 1.3125 136.375 C1.70791992 134.86873047 1.70791992 134.86873047 2.11132812 133.33203125 C2.75080118 130.89040686 3.38014833 128.44666466 4 126 C6.27024968 125.91902676 8.54132075 125.86082296 10.8125 125.8125 C12.07707031 125.77769531 13.34164062 125.74289062 14.64453125 125.70703125 C18 126 18 126 19.95703125 127.02734375 C21.62904178 130.18976068 21.14758059 133.29217177 20.875 136.75 C20.82150391 137.57894775 20.76800781 138.40789551 20.71289062 139.26196289 C20.49471431 142.50958486 20.24662918 145.75441082 20 149 C19.88645453 150.56034131 19.77354136 152.12072872 19.66113281 153.68115234 C19.28215617 158.93387863 18.89356729 164.1858478 18.5 169.4375 C18.43455994 170.31378052 18.36911987 171.19006104 18.30169678 172.09289551 C18.11105815 174.62342657 17.91571811 177.1535483 17.71875 179.68359375 C17.66143707 180.44749924 17.60412415 181.21140472 17.54507446 181.99845886 C17.24881371 185.73766693 16.77329769 189.33275207 16 193 C-1.02844481 193.07003563 -18.05684477 193.12296139 -35.08540058 193.15543652 C-42.99179711 193.17091509 -50.89810422 193.19202341 -58.80444336 193.22631836 C-65.6944353 193.25619054 -72.58436249 193.2755678 -79.47441739 193.28226548 C-83.12374108 193.28618148 -86.77287953 193.29540489 -90.42214394 193.31719017 C-94.49285781 193.341295 -98.56324824 193.34197141 -102.6340332 193.34057617 C-104.45527458 193.35675491 -104.45527458 193.35675491 -106.31330872 193.3732605 C-107.97287598 193.36707451 -107.97287598 193.36707451 -109.66596985 193.36076355 C-111.11088035 193.36491162 -111.11088035 193.36491162 -112.58498096 193.36914349 C-115.42981795 192.93430093 -116.30370255 192.28384316 -118 190 C-119.00183734 186.19815573 -118.83085324 182.82785958 -118 179 C-115.54156791 174.81825522 -112.34771104 171.48956321 -109 168 C-108.01315047 166.93718815 -107.02884055 165.87201345 -106.046875 164.8046875 C-104.51764061 163.14382655 -102.98636691 161.48542124 -101.44433594 159.83642578 C-98.32393437 156.49115718 -95.36471393 153.07051302 -92.5 149.5 C-88.16238851 144.09770205 -83.50058405 139.05404384 -78.77734375 133.9921875 C-76.0635354 131.08162125 -73.44260244 128.09988008 -70.83984375 125.08984375 C-68.43329461 122.35629006 -65.96678154 119.67903563 -63.5 117 C-59.92920713 113.11716703 -56.37379633 109.22662374 -52.9296875 105.23046875 C-51.38716116 103.44750814 -49.8277567 101.68439511 -48.2578125 99.92578125 C-30.26065777 79.58850222 -16.42593177 57.0708834 -18 29 C-19.24536061 21.11623411 -22.62845717 14.49190311 -28.921875 9.46484375 C-38.55960286 3.05836961 -50.0500947 2.67178412 -61.203125 4.53515625 C-70.86873595 7.00555681 -78.90997911 11.02565027 -85.3125 18.8125 C-87.38696788 22.73093933 -87.69673507 25.60265846 -88 30 C-87.01 30.4125 -86.02 30.825 -85 31.25 C-83.66611066 31.8320608 -82.33281238 32.41547737 -81 33 C-80.32839844 33.2784375 -79.65679688 33.556875 -78.96484375 33.84375 C-73.03346205 36.49515762 -68.71766682 39.9794436 -66.1171875 46.06640625 C-64.39627416 52.15495407 -64.87697339 58.06775693 -67 64 C-70.11994348 69.21709558 -74.02271923 72.86435654 -79.90234375 74.59765625 C-87.35195142 76.02653817 -93.57889367 75.20104297 -100 71 C-106.79876282 65.29820069 -110.39931139 58.68801429 -112 50 C-113.42636775 33.62136343 -109.9723509 19.31407167 -99.5 6.375 C-73.86314055 -20.9253198 -29.11360672 -21.53240558 0 0 Z " fill="#D5AB4E" transform="translate(2094,682)"/>
<path d="M0 0 C10.29924706 8.56783118 16.91992826 20.75426018 19 34 C20.3806148 54.05286408 14.58358281 70.93248552 1.44140625 86.25390625 C0.63574219 87.16011719 -0.16992188 88.06632813 -1 89 C-1.85722656 89.97839844 -2.71445313 90.95679688 -3.59765625 91.96484375 C-12.32672814 101.79376601 -21.92899254 110.44579456 -32.16015625 118.6953125 C-36.94823859 122.58110147 -41.63097084 126.59091763 -46.32958984 130.58398438 C-48.00375841 132.00318603 -49.68271475 133.41650771 -51.36328125 134.828125 C-64.91097751 146.16319981 -64.91097751 146.16319981 -77 159 C-62.22342259 160.43435991 -47.50738669 161.22551954 -32.66488647 161.29956055 C-31.01936466 161.30815515 -29.37386109 161.32178961 -27.72842407 161.34057617 C-25.39549286 161.36443794 -23.0635005 161.36713574 -20.73046875 161.36328125 C-20.03770844 161.37241043 -19.34494812 161.38153961 -18.63119507 161.39094543 C-14.03023084 161.3476965 -10.85502175 160.52266843 -7 158 C-2.34756414 151.83405112 -0.55200469 143.74446708 1.3125 136.375 C1.70791992 134.86873047 1.70791992 134.86873047 2.11132812 133.33203125 C2.75080118 130.89040686 3.38014833 128.44666466 4 126 C6.27024968 125.91902676 8.54132075 125.86082296 10.8125 125.8125 C12.07707031 125.77769531 13.34164063 125.74289062 14.64453125 125.70703125 C18 126 18 126 19.95703125 127.02734375 C21.62904178 130.18976068 21.14758059 133.29217177 20.875 136.75 C20.82150391 137.57894775 20.76800781 138.40789551 20.71289062 139.26196289 C20.49471431 142.50958486 20.24662918 145.75441082 20 149 C19.88645453 150.56034131 19.77354136 152.12072872 19.66113281 153.68115234 C19.28215617 158.93387863 18.89356729 164.1858478 18.5 169.4375 C18.43455994 170.31378052 18.36911987 171.19006104 18.30169678 172.09289551 C18.11105815 174.62342657 17.91571811 177.1535483 17.71875 179.68359375 C17.66143707 180.44749924 17.60412415 181.21140472 17.54507446 181.99845886 C17.24881371 185.73766693 16.77329769 189.33275207 16 193 C-1.02844481 193.07003563 -18.05684477 193.12296139 -35.08540058 193.15543652 C-42.99179711 193.17091509 -50.89810422 193.19202341 -58.80444336 193.22631836 C-65.6944353 193.25619054 -72.58436249 193.2755678 -79.47441739 193.28226548 C-83.12374108 193.28618148 -86.77287953 193.29540489 -90.42214394 193.31719017 C-94.49285781 193.341295 -98.56324824 193.34197141 -102.6340332 193.34057617 C-104.45527458 193.35675491 -104.45527458 193.35675491 -106.31330872 193.3732605 C-107.97287598 193.36707451 -107.97287598 193.36707451 -109.66596985 193.36076355 C-111.11088035 193.36491162 -111.11088035 193.36491162 -112.58498096 193.36914349 C-115.42981795 192.93430093 -116.30370255 192.28384316 -118 190 C-119.00183734 186.19815573 -118.83085324 182.82785958 -118 179 C-115.54156791 174.81825522 -112.34771104 171.48956321 -109 168 C-108.01315047 166.93718815 -107.02884055 165.87201345 -106.046875 164.8046875 C-104.51764061 163.14382655 -102.98636691 161.48542124 -101.44433594 159.83642578 C-98.32393437 156.49115718 -95.36471393 153.07051302 -92.5 149.5 C-88.16238851 144.09770205 -83.50058405 139.05404384 -78.77734375 133.9921875 C-76.0635354 131.08162125 -73.44260244 128.09988008 -70.83984375 125.08984375 C-68.43329461 122.35629006 -65.96678154 119.67903563 -63.5 117 C-59.92920713 113.11716703 -56.37379633 109.22662374 -52.9296875 105.23046875 C-51.38716116 103.44750814 -49.8277567 101.68439511 -48.2578125 99.92578125 C-30.26065777 79.58850222 -16.42593177 57.0708834 -18 29 C-19.24536061 21.11623411 -22.62845717 14.49190311 -28.921875 9.46484375 C-38.55960286 3.05836961 -50.0500947 2.67178412 -61.203125 4.53515625 C-70.86873595 7.00555681 -78.90997911 11.02565027 -85.3125 18.8125 C-87.38696788 22.73093933 -87.69673507 25.60265846 -88 30 C-87.01 30.4125 -86.02 30.825 -85 31.25 C-83.66611066 31.8320608 -82.33281238 32.41547737 -81 33 C-80.32839844 33.2784375 -79.65679688 33.556875 -78.96484375 33.84375 C-73.03346205 36.49515762 -68.71766682 39.9794436 -66.1171875 46.06640625 C-64.39627416 52.15495407 -64.87697339 58.06775693 -67 64 C-70.11994348 69.21709558 -74.02271923 72.86435654 -79.90234375 74.59765625 C-87.35195142 76.02653817 -93.57889367 75.20104297 -100 71 C-106.79876282 65.29820069 -110.39931139 58.68801429 -112 50 C-113.42636775 33.62136343 -109.9723509 19.31407167 -99.5 6.375 C-73.86314055 -20.9253198 -29.11360672 -21.53240558 0 0 Z " fill="#D5AB4E" transform="translate(1704,682)"/>
<path d="M0 0 C0.96550781 0.20753906 1.93101562 0.41507813 2.92578125 0.62890625 C4.69501953 1.02916016 4.69501953 1.02916016 6.5 1.4375 C47.03284706 10.13493423 47.03284706 10.13493423 86.5625 1.1640625 C89.86647522 -0.07492821 92.15630671 0.46225612 95.5 1.4375 C97.01449226 4.46648452 97.02456594 7.16348502 96.5 10.4375 C91.86408118 23.22265728 82.89467703 30.74016149 70.9921875 36.69140625 C51.97399558 44.97746736 27.14228882 42.62639857 7.5 37.4375 C7.40912109 39.30341797 7.40912109 39.30341797 7.31640625 41.20703125 C6.55966646 56.34944015 6.55966646 56.34944015 5.9375 62.5 C5.43714399 67.48792393 5.40221171 72.42856661 5.5 77.4375 C6.45519531 77.09976563 7.41039063 76.76203125 8.39453125 76.4140625 C29.31321273 69.13764484 49.94220669 67.67585172 70.72265625 76.9921875 C75.32306658 79.38621257 79.41893167 82.25024799 83.5 85.4375 C84.53060547 86.20320312 84.53060547 86.20320312 85.58203125 86.984375 C98.52039684 97.29423634 106.06371702 113.71899829 108.125 129.875 C109.86774655 148.50654497 106.21168299 168.105495 94.4296875 183.06640625 C80.17184893 199.33623946 63.3603908 209.56598022 41.5 211.4375 C21.14726707 212.64358788 3.16396586 209.17857902 -12.5 195.4375 C-22.05661044 185.6439488 -27.2232594 173.71324064 -27.8125 160.0625 C-27.59929657 152.06026454 -25.75546036 143.62039454 -20.5 137.4375 C-15.30776356 132.64466637 -10.81972003 130.98649508 -3.8359375 131.1953125 C1.95278309 131.79548086 5.98490336 133.48568999 9.875 137.875 C14.7416807 143.95155383 16.02154482 150.18893783 15.25390625 157.9140625 C14.3529605 162.68189931 13.1939372 166.11295652 9.5 169.4375 C6.24376471 171.28577192 2.91534761 172.90580785 -0.5 174.4375 C-0.23770575 178.19705091 0.22562375 180.09856463 2.625 183.0625 C12.65887339 191.35135193 23.73995819 193.49622959 36.51025391 192.64892578 C45.0828056 191.73802642 53.49400289 188.77334592 59.5 182.4375 C66.92452971 173.21308429 70.0570302 160.13928557 70.5 148.4375 C70.57734375 146.68566406 70.57734375 146.68566406 70.65625 144.8984375 C71.03656071 132.09464363 69.84988013 118.81334703 63.5 107.4375 C62.96375 106.40625 62.4275 105.375 61.875 104.3125 C56.13287796 97.36151016 48.39776832 92.85104617 39.5 91.4375 C29.8150883 90.51622421 21.49705615 91.77885057 12.5 95.4375 C11.04980469 96.02144531 11.04980469 96.02144531 9.5703125 96.6171875 C5.50756689 98.60734404 3.05581827 99.99001567 1.39453125 104.31640625 C0.92765492 106.41863945 0.499659 108.52993091 0.11328125 110.6484375 C-0.5 113.4375 -0.5 113.4375 -2.625 116.625 C-6.52033672 119.08075576 -9.91571685 119.73701759 -14.5 119.4375 C-18.170261 117.87568681 -19.2727373 116.77839404 -21.5 113.4375 C-22.4798802 106.28209574 -21.67450144 101.28180202 -17.5 95.4375 C-16.98236084 94.88980957 -16.46472168 94.34211914 -15.93139648 93.77783203 C-13.83949102 90.35756838 -13.72530522 86.83923627 -13.41015625 82.9296875 C-13.33273697 82.09122284 -13.25531769 81.25275818 -13.17555237 80.3888855 C-12.93570853 77.73946534 -12.71585456 75.08897354 -12.5 72.4375 C-12.43012878 71.61495728 -12.36025757 70.79241455 -12.28826904 69.94494629 C-11.79683421 64.15364718 -11.35978735 58.35919728 -10.9375 52.5625 C-10.87174774 51.68495056 -10.80599548 50.80740112 -10.73825073 49.90325928 C-10.0547986 40.75127696 -9.43609988 31.61399108 -9.2265625 22.4375 C-9.21003128 21.75541473 -9.19350006 21.07332947 -9.1764679 20.37057495 C-9.10507563 17.22311959 -9.06142645 14.07849116 -9.05444336 10.93017578 C-9.03776611 9.8420459 -9.02108887 8.75391602 -9.00390625 7.6328125 C-9.00205322 6.69453613 -9.0002002 5.75625977 -8.99829102 4.78955078 C-8.5 2.4375 -8.5 2.4375 -6.59936523 0.61254883 C-3.94361903 -0.87391547 -2.93885117 -0.68223331 0 0 Z " fill="#D7AD50" transform="translate(2179.5,667.5625)"/>
<path d="M0 0 C21.65141524 -2.82001067 44.98161882 8.4932408 64 18 C64.62890137 18.31114746 65.25780273 18.62229492 65.90576172 18.94287109 C82.6330445 27.37851879 94.01546433 38.87110509 100.125 56.6875 C100.4955249 57.73768311 100.8660498 58.78786621 101.24780273 59.86987305 C105.03397375 70.76527906 108.41646171 81.79060813 111.83642578 92.80502319 C115.27471281 103.86170835 118.93404435 114.71240507 123.4765625 125.375 C125.99227898 131.3611151 127.24843549 135.83291886 127.125 142.375 C127.10695313 143.62023437 127.08890625 144.86546875 127.0703125 146.1484375 C127.04710937 147.08945313 127.02390625 148.03046875 127 149 C124.17670081 150.41164959 121.7709921 150.13206965 118.625 150.125 C117.48289062 150.12757813 116.34078125 150.13015625 115.1640625 150.1328125 C110.39531191 149.93264272 110.39531191 149.93264272 108 149 C106.7265625 147.15600586 106.7265625 147.15600586 105.625 144.71484375 C104.99235229 143.34718872 104.99235229 143.34718872 104.34692383 141.9519043 C103.68019653 140.45977417 103.68019653 140.45977417 103 138.9375 C102.02641769 136.83776276 101.05109896 134.73882995 100.07421875 132.640625 C99.31890869 131.00383789 99.31890869 131.00383789 98.54833984 129.33398438 C96.03395081 123.9198411 93.44134438 118.54684978 90.8125 113.1875 C90.35037109 112.2173999 89.88824219 111.2472998 89.41210938 110.24780273 C78.59600798 88.26858969 61.13378096 78.83916246 39.35546875 70.37109375 C27.55659928 65.54990262 21.4920401 60.31162781 16.5402832 48.52563477 C14.85808513 44.42213699 13.20901007 40.3054184 11.5625 36.1875 C10.44178176 33.38811627 9.3181156 30.58994649 8.19140625 27.79296875 C7.92092972 27.11904587 7.65045319 26.44512299 7.3717804 25.7507782 C5.39224129 20.85849244 3.22592264 16.07967464 0.89355469 11.34375 C-0.58356257 7.46934408 -0.33571322 4.09570129 0 0 Z " fill="#F2BC29" transform="translate(1832,61)"/>
</svg>
